<?xml version="1.0" encoding="utf-8"?>
<!-- Generator: Adobe Illustrator 15.1.0, SVG Export Plug-In . SVG Version: 6.00 Build 0)  -->
<!DOCTYPE svg PUBLIC "-//W3C//DTD SVG 1.1//EN" "http://www.w3.org/Graphics/SVG/1.1/DTD/svg11.dtd">
<svg version="1.1" id="Calque_1" xmlns="http://www.w3.org/2000/svg" xmlns:xlink="http://www.w3.org/1999/xlink" x="0px" y="0px"
	 width="40px" height="25px" viewBox="0 0 40 25" enable-background="new 0 0 40 25" xml:space="preserve">
<path fill-rule="evenodd" clip-rule="evenodd" fill="#FF00FF" d="M28-36.282v-0.011c0,0,0.02,0.005,0,0.005s0-0.005,0-0.005V-36.282
	c-8,0.24-21.056,23.127-13.674,23.865C17.242-12.125,22-16.25,22-16.25s0,66.34,0,74.019c0,6.238,4.92,5.98,5.572,5.919
	C28.207,63.749,33,64.007,33,57.769c0-7.679,0-74.019,0-74.019s5.331,4.125,8.247,3.833C48.629-13.154,35-36.042,28-36.282z"/>
</svg>
